<svg xmlns="http://www.w3.org/2000/svg" width="131" height="28" fill="none"><g clip-path="url(#a)"><path fill="#F5C027" d="M77.854 22.802a7.346 7.346 0 0 0-1.075-1.323l-9.766-9.77a.461.461 0 0 1 0-.652l6.818-6.82c.21-.21.38-.365.501-.458a.68.68 0 0 1 .327-.154c.093-.01.186.032.27.116l.097.096c.107.108.16.21.16.306s-.047.204-.134.33a4.516 4.516 0 0 1-.458.512l-5.262 5.265a1.342 1.342 0 0 0 0 1.894l.15.152a1.34 1.34 0 0 0 1.894 0L76.73 6.94a7.294 7.294 0 0 0 1.078-1.328c.268-.434.361-.968.28-1.603-.079-.635-.487-1.32-1.224-2.057l-.107-.108C76.042 1.13 75.369.74 74.74.68c-.629-.061-1.162.04-1.599.312-.437.27-.87.623-1.305 1.057l-6.917 6.92a.46.46 0 0 1-.653 0L55.703.393a1.341 1.341 0 0 0-1.893 0l-.175.175a1.342 1.342 0 0 0 0 1.894l20.942 20.949c.224.224.382.4.475.53.093.131.137.25.13.359-.005.107-.066.221-.183.338l-.032.032c-.116.116-.227.177-.338.183-.107.006-.227-.038-.358-.13a4.657 4.657 0 0 1-.53-.476l-9.958-9.961-.597-.598L52.803 3.292a1.341 1.341 0 0 0-1.894 0l-.175.175a1.342 1.342 0 0 0 0 1.894l8.57 8.572a.46.46 0 0 1 0 .653l-6.927 6.928c-.428.429-.777.86-1.048 1.297-.271.437-.373.97-.312 1.6.064.629.451 1.302 1.165 2.016l.108.108c.737.737 1.421 1.145 2.056 1.223.635.079 1.168-.011 1.596-.277a7.35 7.35 0 0 0 1.323-1.075l5.434-5.437a1.342 1.342 0 0 0 0-1.893l-.151-.152a1.341 1.341 0 0 0-1.893 0L55.3 24.279a4.434 4.434 0 0 1-.5.449c-.123.087-.23.131-.324.128-.093 0-.19-.052-.288-.154l-.108-.108c-.087-.087-.125-.178-.116-.271a.682.682 0 0 1 .148-.323c.09-.12.242-.286.455-.499l6.827-6.83a.46.46 0 0 1 .652 0l9.766 9.77c.451.452.894.81 1.322 1.075.431.266.962.356 1.596.277.635-.078 1.32-.486 2.057-1.224l.12-.119c.736-.737 1.144-1.422 1.222-2.057.08-.635-.011-1.168-.276-1.597v.006Z"/><path fill="#000" d="M46.406.079h-3.71l-3.848 12.849V.078h-3.402V28h3.402V15.072l3.848 12.852h3.71L41.936 14 46.406.079ZM17.015 0h-1.188a4.046 4.046 0 0 0-4.043 4.044v19.912A4.044 4.044 0 0 0 15.827 28h1.188a4.044 4.044 0 0 0 4.043-4.044V4.044A4.045 4.045 0 0 0 17.015 0Zm.641 24.05a1.236 1.236 0 0 1-2.47 0V3.95a1.236 1.236 0 0 1 2.47 0v20.1ZM28.8 0h-1.186a4.044 4.044 0 0 0-4.045 4.044v19.912A4.044 4.044 0 0 0 27.61 28h1.186a4.044 4.044 0 0 0 4.043-4.044V4.044A4.041 4.041 0 0 0 28.8 0Zm.64 24.05a1.236 1.236 0 0 1-2.47 0V3.95a1.236 1.236 0 0 1 2.47 0v20.1ZM5.231 0H4.043A4.046 4.046 0 0 0 0 4.044v19.912A4.044 4.044 0 0 0 4.043 28H5.23a4.044 4.044 0 0 0 4.043-4.044v-6.232H5.872v6.325a1.236 1.236 0 0 1-2.47 0V3.951a1.236 1.236 0 0 1 2.47 0v6.325h3.402V4.044A4.046 4.046 0 0 0 5.23 0ZM100.823 17.138 97.721 0H94.7v27.924h3.02v-15.55l2.115 15.55h4.008V0h-3.02v17.138ZM109.467 0h-3.02v27.924h3.02V0ZM113.868 0h-1.96v2.82h1.96v25.104h3.021V2.82h1.957V0h-4.978ZM127.98 0l-2.022 8.837L123.94 0h-3.023l3.533 14.848v13.076h3.02V14.848L131 0h-3.02ZM88.674 23.973c0 .682-.542 1.236-1.206 1.236-.664 0-1.206-.554-1.206-1.236V0h-3.326v23.877c0 2.235 1.771 4.044 3.953 4.044h1.159c2.184 0 3.952-1.812 3.952-4.044V0h-3.326v23.973Z"/></g><defs><clipPath id="a"><path fill="#fff" d="M0 0h131v28H0z"/></clipPath></defs></svg>